<?xml version="1.0" encoding="UTF-8" standalone="no"?>
<!DOCTYPE svg PUBLIC "-//W3C//DTD SVG 1.1//EN" "http://www.w3.org/Graphics/SVG/1.1/DTD/svg11.dtd">
<svg width="100%" height="100%" viewBox="0 0 625 499" version="1.1" xmlns="http://www.w3.org/2000/svg" xmlns:xlink="http://www.w3.org/1999/xlink" xml:space="preserve" xmlns:serif="http://www.serif.com/" style="fill-rule:evenodd;clip-rule:evenodd;stroke-linejoin:round;stroke-miterlimit:2;">
    <g transform="matrix(1,0,0,1,-69,-23)">
        <clipPath id="_clip1">
            <rect x="647.966" y="122.507" width="46.034" height="79.267"/>
        </clipPath>
        <g clip-path="url(#_clip1)">
            <path d="M654.108,140.898C656.239,141.392 660.193,144.074 660.725,145.462C662.104,149.061 661.365,152.468 661.365,152.468C661.365,152.468 668.113,149.129 670.112,146.993C672.368,144.58 670.05,139.671 668.598,139.189C671.208,138.322 674.48,141.034 673.699,145.004C673.699,145.004 674.88,143.943 675.38,143.098C676.884,140.558 675.858,135.92 672.613,134.585C674.514,133.749 677.053,134.508 677.78,136.201C678.7,134.88 676.361,127.078 671.352,127.103C667.238,127.124 669.373,132.948 672.136,130.972C672.254,132.376 670.836,135.487 667.182,135.532C664.147,135.568 662.007,132.742 662.029,128.313C662.047,124.601 665.498,122.72 669.365,122.525C679.032,122.038 681.942,131.328 681.932,134.922C681.904,145.635 665.721,153.279 662.248,154.766C662.355,156.131 662.244,157.18 661.995,158.827C663.2,157.543 668.993,151.611 675.4,151.565C680.127,151.532 685.699,157.237 686.374,161.624C687.171,166.796 685.888,172.454 678.868,170.181C678.868,170.181 677.9,171.982 679.6,172.464C681.126,172.897 685.798,173.982 686.541,174.873C686.541,174.873 687.937,172.041 695.406,168.758C703.332,165.275 695.747,170.84 695.747,170.84C692.927,171.575 691.885,178.848 686.716,178.908C683.282,178.947 678.376,177.35 676.702,178.599C674.954,179.903 672.536,183.292 668.098,183.163C668.098,183.163 668.542,188.738 667.69,190.529C666.837,192.32 665.257,193.142 665.406,194.457C665.557,195.796 667.882,198.318 664.669,199.056C663.787,199.258 662.137,200.55 661.351,201.774L656.73,200.763C656.73,200.763 659.73,198.468 660.983,197.125C663.181,194.77 665.124,189.996 664.114,182.414C663.803,180.075 665.35,179.416 666.514,178.55C667.578,177.758 669.906,175.514 666.197,174.452C662.873,173.501 660.877,174.027 660.141,174.317C660.162,175.813 664.156,175.601 663.997,176.206C663.833,176.831 663.508,177.496 663.019,177.655C662.548,177.808 662.157,180.51 662.157,180.51C661.168,180.801 659.086,178.19 658.765,177.463C658.396,176.629 654.527,175.112 654.496,173.873C654.456,172.288 655.08,171.028 655.007,170.029C654.96,169.378 654.748,166.254 654.748,166.254C653.918,167.138 651.502,167.217 650.811,166.646C650.252,166.184 649.8,164.391 649.075,164.05C648.35,163.709 647.966,162.635 647.966,162.635C647.966,162.635 649.58,162.191 649.196,160.869C648.812,159.547 648.638,160.36 648.345,159.113C647.98,157.557 647.787,156.504 649.663,155.736C651.539,154.968 650.817,154.665 653.648,152.167C656.393,149.746 657.796,149.294 658.112,147.843C658.787,144.745 654.435,141.05 654.108,140.898L654.09,140.894C654.092,140.892 654.098,140.894 654.108,140.898Z" style="fill:white;"/>
        </g>
    </g>
    <g transform="matrix(1,0,0,1,-69,-23)">
        <path d="M465.062,336.883C465.293,334.884 465.044,333.149 464.345,331.663C465.47,332.428 466.108,333.541 466.724,334.697C466.699,333.703 467.057,332.785 467.47,331.908C467.691,332.843 468,333.472 468.567,333.505C469.449,332.601 469.422,331.883 469.462,331.254C469.931,332.433 470.117,333.486 470.256,334.196C470.684,334.743 471.172,335.008 471.714,335.015C472.422,333.045 472.487,331.047 472.635,329.053C473.029,330.952 473.368,332.886 473.556,334.913C474.19,333.54 474.456,332.223 474.452,330.947C475.021,332.72 475.295,334.215 475.486,336.015L476.808,335.921C476.443,335.65 475.844,332.64 476.872,331.623C477.797,330.709 478.154,328.466 478.027,327.873C478.027,327.873 469.073,329.578 466.659,326.096C464.265,322.643 464.315,317.274 466.919,314.114C469.001,311.587 471.756,306.978 482.632,307.202C489.702,307.348 496.859,313.28 497.002,317.559C497.152,322.058 492.285,324.853 490.617,324.843C493.368,329.361 494.199,333.494 491.952,337.011C493.571,336.913 494.768,336.428 494.92,334.989C495.666,335.329 496.231,335.862 496.532,336.678C497.876,333.959 497.174,331.959 496.379,330C497.256,331.299 498.068,332.676 498.451,334.58C499.243,330.497 498.315,327.335 496.967,324.397C499.254,326.877 500.961,330.01 500.166,335.962L502.187,335.757C501.139,333.145 501.484,330.888 503.502,328.752C503.502,328.752 499.501,325.558 500.781,322.82C501.594,321.082 504.891,319.176 508.966,320.669C512.998,322.146 515.915,324.219 516.054,327.441C516.269,332.406 511.234,331.149 511.234,331.149C511.653,332.602 511.744,333.886 511.27,334.964L519.074,334.81L500.626,340.516L476.243,341.207L465.062,336.883Z" style="fill:white;"/>
    </g>
    <g transform="matrix(1,0,0,1,-69,-23)">
        <clipPath id="_clip2">
            <rect x="467.432" y="23" width="100.985" height="106.979"/>
        </clipPath>
        <g clip-path="url(#_clip2)">
            <path d="M469.148,77.956C469.918,77.112 470.127,76.811 471.925,76.582C473.554,76.375 471.64,73.079 474.03,73.104C476.044,73.124 476.429,74.068 478.182,74.093C481.526,74.142 481.95,73.438 481.92,73.427C481.92,73.427 473.024,62.363 473.116,42.027C473.19,25.704 487.529,2.65 512.907,2.736C554.583,2.879 558.511,42.045 557.914,43.724C566.344,50.11 568.697,58.656 568.391,70.947C567.83,93.388 542.178,101.809 539.58,100.808C539.58,100.808 540.133,106.611 542.107,108.984C543.933,111.179 546.502,110.27 546.869,112.245C547.374,114.964 549.821,114.47 549.716,116.013C549.618,117.447 551.573,120.297 550.823,121.546C550.074,122.796 549.121,122.304 550.246,123.616C551.37,124.928 552.416,124.056 551.791,125.993C551.167,127.929 550.074,129.979 550.074,129.979L522.901,109.116L493.667,92.437L467.432,81.256C467.432,81.256 468.377,78.799 469.148,77.956ZM557.446,50.582C561.404,53.829 563.775,64.028 561.536,73.773C557.312,92.153 538.456,95.294 535.911,94.495C535.911,94.495 533.499,92.839 533.339,90.4C533.18,87.961 531.101,86.457 531.141,87.177C531.181,87.897 530.989,84.84 530.989,84.84C534.392,85.018 545.054,76.691 548.806,71.316C551.819,66.999 556.445,58.197 557.446,50.582ZM551.824,45.12C551.824,45.12 538.822,34.524 520.941,44.691C505.353,53.553 508.574,71.601 508.733,72.651C508.733,72.651 510.208,73.52 510.944,74.236C511.519,74.794 512.196,75.304 512.846,75.054C513.495,74.804 514.794,74.109 517.479,74.214C520.193,74.32 522.285,78.533 523.562,79.933L527.438,79.901C532.668,78.551 539.936,71.632 544.029,66.809C551.004,58.587 551.824,45.12 551.824,45.12ZM502.019,71.986C501.827,66.85 500.865,47.187 516.681,38.385C526.534,32.901 541.518,32.76 549.493,36.376C549.493,36.376 545.762,12.388 521.818,9.241C497.983,6.108 485.157,21.112 482.64,27.939C483.39,28.367 486.279,30.7 486.238,34.876C486.188,39.937 484.303,39.305 484.339,41.223C484.374,43.145 485.273,42.82 485.588,45.171C485.874,47.298 486.647,48.308 486.647,50.057C486.647,51.806 484.919,51.714 484.847,53.235C484.726,55.799 487.537,53.116 488.187,55.615C488.836,58.114 487.887,56.465 489.836,60.412C491.785,64.36 490.454,65.124 492.168,65.056C494.075,64.98 493.699,66.51 495.333,69.008C496.997,71.551 497.016,71.979 497.016,71.979L502.019,71.986Z" style="fill:white;"/>
        </g>
    </g>
    <g transform="matrix(1,0,0,1,-69,-23)">
        <path d="M429.625,426.255L427.885,445.675L418.777,439.662L424.917,447.62L408.056,449.513L424.892,450.588L417.958,459.005L427.015,453.044L428.448,471.056L430.163,452.839L438.017,459.184L431.979,450.204L447.791,449.539L432.056,447.748L438.887,440.123L430.137,445.624" style="fill:white;"/>
    </g>
    <g transform="matrix(1,0,0,1,-69,-23)">
        <path d="M124.044,130.615L142.971,133.734C142.971,133.734 144.311,128.168 138.514,128.99C133.222,129.74 131.914,128.611 131.914,128.611C140.602,125.994 138.66,119.403 138.144,118.18C137.309,116.199 141.018,114.745 142.5,114.92C145.294,115.249 149.09,115.51 148.823,114.712C148.782,114.59 148.198,113.739 148.412,113.149C148.6,112.629 149.5,112.271 150.047,112.264C151.008,112.253 151.564,112.666 151.809,112.942C152.884,112.929 152.445,110.233 150.029,110.466C145.746,110.878 144.211,113.609 142.518,111.957C141.469,110.934 141.78,106.998 143.314,105.59C144.935,104.101 148.916,105.282 149.083,104.531C149.669,101.886 147.86,103.094 145.499,101.051C143.777,99.561 141.303,100.316 140.938,99.831C140.38,99.091 143.142,91.744 139.369,90.521C138.736,92.844 134.518,94.34 138.388,101.234C134.005,104.491 133.187,109.424 129.161,111.655C116.436,118.707 122.399,126.948 122.399,126.948C119.505,127.892 118.966,124.184 118.962,122.407C118.958,120.693 121.014,116.651 124.835,113.741C132.066,108.233 132.049,104.861 132.164,102.752C132.527,96.135 125.584,94.873 123.73,94.938C111.167,95.383 115.31,106.613 118.208,106.321C116.555,105.337 116.366,100.026 119.225,101.027C118.507,102.402 118.861,104.768 121.002,105.901C120.47,105.163 120.573,99.481 124.477,99.546C127.79,99.6 128.356,101.714 128.326,102.585C128.22,105.753 125.126,103.815 124.922,102.942C122.801,104.559 126.718,106.105 126.909,107.745C127.17,109.978 125.278,111.74 124.026,111.831C124.292,109.812 122.205,107.366 120.056,108.159C121.356,108.841 122.953,112.625 121.812,114.066C120.807,115.336 117.612,117.197 117.271,122.015C116.919,126.995 120.653,128.252 122.95,128.256C122.832,129.44 123.21,130.216 124.044,130.615Z" style="fill:white;"/>
    </g>
    <g transform="matrix(1,0,0,1,-69,-23)">
        <clipPath id="_clip3">
            <rect x="109.93" y="23" width="91.186" height="20.321"/>
        </clipPath>
        <g clip-path="url(#_clip3)">
            <path d="M116.222,10.117C109.417,10.503 108.853,21.922 111.143,23.597C112.754,19.4 114.936,18.403 120.705,18.113C132.872,17.501 136.355,42.406 158.361,43.281C174.729,43.932 183.62,36.448 183.62,36.448C186.331,41.081 190.623,43.351 194.702,42.207C186.466,30.74 195.673,21.367 201.116,11.357L191.053,10.458C189.673,14.984 185.173,22.193 178.135,22.403C174.286,22.519 170.692,16.79 170.463,13.661C167.21,20.972 168.805,31.715 178.033,31.631C176.183,33.365 174.061,35.595 163.2,35.563C142.598,35.503 145.726,10.283 145.726,10.283C145.726,10.283 116.581,10.097 116.222,10.117Z" style="fill:white;"/>
        </g>
    </g>
    <g transform="matrix(1,0,0,1,-69,-23)">
        <clipPath id="_clip4">
            <rect x="69" y="23" width="23.556" height="36.845"/>
        </clipPath>
        <g clip-path="url(#_clip4)">
            <path d="M92.555,8.298C80.942,9.662 66.537,35.051 63.941,59.845C63.936,59.888 60.02,8.315 59.993,8.521C59.965,8.726 92.805,8.268 92.555,8.298Z" style="fill:white;"/>
        </g>
    </g>
    <g transform="matrix(1,0,0,1,-69,-23)">
        <clipPath id="_clip5">
            <rect x="69" y="48.989" width="77.951" height="91.23"/>
        </clipPath>
        <g clip-path="url(#_clip5)">
            <path d="M63.075,77.227C74.942,79.651 80.785,92.347 79.775,103.015C84.594,97.451 91.967,52.687 121.162,49.113C133.873,47.557 152.288,60.793 145.489,78.717C144.14,74.198 137.09,69.28 130.977,69.932C126.374,70.423 113.678,69.333 94.786,105.415C86.578,121.091 60.988,140.632 59.993,140.212C57.033,138.96 60.093,123.47 59.993,124.233C59.6,127.232 70.55,118.28 70.257,104.86C70.044,95.098 63.284,92.502 59.993,94.787C58.595,95.758 62.716,77.154 63.075,77.227Z" style="fill:white;"/>
        </g>
    </g>
    <g transform="matrix(1,0,0,1,221,443)">
        <path d="M223.776,38.508C234.276,36.646 232.034,37.827 234.283,24.19C236.336,38.304 233.473,36.342 242.995,38.47C236.004,39.077 235.964,39.432 233.969,52.141C232.327,39.017 234.376,40.844 223.776,38.508Z" style="fill:white;"/>
    </g>
    <g transform="matrix(1,0,0,1,-69,-23)">
        <path d="M221.802,40.52C232.989,39.152 232.521,38.178 234.283,24.19C236.284,38.727 236.191,39.183 245.793,40.673C234.806,42.417 236.291,43.618 233.988,57.218C233.577,43.536 233.097,42.343 221.802,40.52Z" style="fill:white;"/>
    </g>
    <g transform="matrix(1,0,0,1,-69,-23)">
        <clipPath id="_clip6">
            <rect x="560.343" y="23" width="133.657" height="125.297"/>
        </clipPath>
        <g clip-path="url(#_clip6)">
            <path d="M626.743,146.273C647.776,156.989 667.912,122.042 636.408,114.071C642.959,112.101 663.522,107.473 664.544,85.752C665.942,56.033 632.695,49.124 624.333,54.559C635.635,57.388 639.074,72.039 646.259,72.69C651.587,73.172 653.576,68.036 653.397,65.809C657.317,69.713 661.011,75.376 660.325,81.459C651.301,73.529 644.1,76.502 644.833,88.508C647.266,83.192 656.617,82.847 656.766,89.671C656.854,93.686 652.515,109.528 628.114,109.802C612.502,109.977 587.555,98.789 587.201,84.783C587.201,84.783 596.467,95.928 606.498,94.69C608.857,94.399 621.496,92.306 623.255,78.931C624.152,72.106 622.527,68.293 619.48,65.385C619.226,67.114 617.54,77.578 604.201,77.833C599.206,77.929 586.692,70.933 588.275,56.887C590.117,40.548 606.862,25.071 636.558,23.791C662.167,22.688 695.85,34.926 696.014,62.852C696.032,65.951 698.449,20.881 696.479,19.882C696.211,19.746 628.643,13.608 627.341,13.626C620.078,13.731 606.077,26.709 592.729,29.471C584.498,31.175 567.735,29.855 565.459,16.125C552.392,26.414 566.338,44.971 584.974,40.032C584.974,40.032 575.869,56.092 576.537,69.543C578.281,104.658 608.735,113.265 621.482,118.763C626.75,121.035 637.909,126.772 637.985,134.13C638.054,140.78 634.701,146.616 626.743,146.273Z" style="fill:white;"/>
        </g>
    </g>
    <g transform="matrix(1,0,0,1,-69,-23)">
        <clipPath id="_clip7">
            <rect x="680.584" y="98.552" width="13.416" height="37.452"/>
        </clipPath>
        <g clip-path="url(#_clip7)">
            <path d="M691.468,118.817C695.999,122.631 713.94,122.012 713.722,113.044C713.565,106.607 700.077,91.326 684.72,102.56C675.096,109.601 684.101,128.588 693.102,132.262C698.846,134.607 706.994,136.004 706.994,136.004C706.994,136.004 708.048,127.978 706.328,128.837C701.906,131.045 691.671,124.752 691.468,118.817Z" style="fill:white;"/>
        </g>
    </g>
    <g transform="matrix(1,0,0,1,-69,-23)">
        <clipPath id="_clip8">
            <rect x="69" y="231.438" width="32.693" height="77.384"/>
        </clipPath>
        <g clip-path="url(#_clip8)">
            <path d="M56.729,274.974C66.579,276.983 98.059,269.198 82.787,243.285C88.951,260.653 59.74,268.712 59.171,246.142C59.026,240.38 64.183,231.202 79.192,231.443C90.293,231.621 101.89,242.168 101.69,257.206C101.534,268.974 92.065,279.436 80.964,281.593C85.174,283.122 87.953,289.861 87.878,293.286C87.754,298.939 82.184,308.268 77.524,308.795C78.922,309.393 79.057,300.173 76.148,297.134C73.488,294.356 67.417,289.94 56.436,290.6C56.113,290.62 56.338,274.894 56.729,274.974Z" style="fill:white;"/>
        </g>
    </g>
    <g transform="matrix(1,0,0,1,-69,-23)">
        <clipPath id="_clip9">
            <rect x="69" y="309.495" width="90.74" height="120.797"/>
        </clipPath>
        <g clip-path="url(#_clip9)">
            <path d="M55.617,309.546C77.249,308.311 103.961,329.57 112.206,345.613C122.431,365.509 123.82,394.325 139.189,395.524C154.308,396.703 159.204,385.659 158.711,382.68C167.777,420.33 114.016,427.873 111.797,392.526C106.115,429.055 56.887,435.159 50.844,427.234C50.844,427.234 51.064,419.852 51.124,419.92C53.098,422.141 64.44,424.39 63.1,422.904C50.241,413.415 62.629,397.952 75.537,403.404C73.096,403.959 67.323,408.822 70.001,414.524C73.865,422.749 85.398,417.395 87.352,416.409C112.175,403.883 107.657,361.473 107.626,361.109C106.341,345.849 91.7,327.069 80.618,324.969C104.771,347.49 79.087,387.985 46.931,367.238C75.604,357.818 67.412,336.068 54.8,327.253L55.617,309.546Z" style="fill:white;"/>
        </g>
    </g>
    <g transform="matrix(1,0,0,1,-69,-23)">
        <circle cx="251" cy="27" r="3" style="fill:white;"/>
    </g>
    <g transform="matrix(1,0,0,1,-69,-23)">
        <circle cx="220.594" cy="53.977" r="3.449" style="fill:white;"/>
    </g>
    <g transform="matrix(1,0,0,1,-69,-23)">
        <circle cx="169.455" cy="88.288" r="3.35" style="fill:white;"/>
    </g>
    <g transform="matrix(1,0,0,1,-69,-23)">
        <circle cx="201.099" cy="126.431" r="2.899" style="fill:white;"/>
    </g>
    <g transform="matrix(1,0,0,1,-69,-23)">
        <circle cx="231.612" cy="237.316" r="3.221" style="fill:white;"/>
    </g>
    <g transform="matrix(1,0,0,1,-69,-23)">
        <circle cx="253.252" cy="261.056" r="4.281" style="fill:white;"/>
    </g>
    <g transform="matrix(1,0,0,1,-69,-23)">
        <circle cx="442.314" cy="202.714" r="3.396" style="fill:white;"/>
    </g>
    <g transform="matrix(1,0,0,1,-69,-23)">
        <circle cx="462.396" cy="228.696" r="3.042" style="fill:white;"/>
    </g>
    <g transform="matrix(1,0,0,1,-69,-23)">
        <circle cx="593.905" cy="132.644" r="3.136" style="fill:white;"/>
    </g>
    <g transform="matrix(1,0,0,1,-69,-23)">
        <circle cx="617.444" cy="158.717" r="4.144" style="fill:white;"/>
    </g>
    <g transform="matrix(1,0,0,1,-69,-23)">
        <circle cx="526.098" cy="356.106" r="3.314" style="fill:white;"/>
    </g>
    <g transform="matrix(1,0,0,1,-69,-23)">
        <circle cx="550.459" cy="383.385" r="4.505" style="fill:white;"/>
    </g>
    <g transform="matrix(1,0,0,1,-69,-23)">
        <circle cx="436.39" cy="426.172" r="2.935" style="fill:white;"/>
    </g>
    <g transform="matrix(1,0,0,1,-69,-23)">
        <circle cx="415.427" cy="464.706" r="2.961" style="fill:white;"/>
    </g>
    <g transform="matrix(1,0,0,1,-69,-23)">
        <circle cx="532.885" cy="495.239" r="3.156" style="fill:white;"/>
    </g>
    <g transform="matrix(1,0,0,1,-69,-23)">
        <circle cx="283.902" cy="478.213" r="3.334" style="fill:white;"/>
    </g>
    <g transform="matrix(1,0,0,1,-69,-23)">
        <circle cx="228.781" cy="463.609" r="3.487" style="fill:white;"/>
    </g>
    <g transform="matrix(1,0,0,1,-69,-23)">
        <circle cx="219.473" cy="449.455" r="2.606" style="fill:white;"/>
    </g>
    <g transform="matrix(1,0,0,1,-69,-23)">
        <circle cx="251.499" cy="432.508" r="2.602" style="fill:white;"/>
    </g>
    <g transform="matrix(1,0,0,1,-69,-23)">
        <circle cx="346.947" cy="444.951" r="3.019" style="fill:white;"/>
    </g>
    <g transform="matrix(1,0,0,1,-69,-23)">
        <circle cx="326.51" cy="417.954" r="3.141" style="fill:white;"/>
    </g>
    <g transform="matrix(1,0,0,1,-69,-23)">
        <circle cx="225.428" cy="417.727" r="2.574" style="fill:white;"/>
    </g>
    <g transform="matrix(1,0,0,1,-69,-23)">
        <circle cx="215.362" cy="407.15" r="2.536" style="fill:white;"/>
    </g>
    <g transform="matrix(1,0,0,1,-69,-23)">
        <circle cx="200.914" cy="396.993" r="2.164" style="fill:white;"/>
    </g>
    <g transform="matrix(1,0,0,1,-69,-23)">
        <clipPath id="_clip10">
            <rect x="276.275" y="391.15" width="198.523" height="130.85"/>
        </clipPath>
        <g clip-path="url(#_clip10)">
            <path d="M287.369,524.466C280.404,524.542 276.321,524.612 276.275,524.669C277.802,511.443 287.018,501.439 288.733,490.816C291.414,474.201 292.778,448.933 298.913,444.524C295.054,468.305 312.909,495.263 329.878,495.151C364.016,494.926 378.86,403.607 380.191,391.15C382.878,442.024 404.304,495.382 424.319,495.931C453.438,496.729 461.841,452.06 462.528,447.01C462.236,460.428 465.11,484.108 466.547,495.104C467.581,503.017 473.778,521.562 474.687,523.303C473.371,523.309 459.707,523.376 440.118,523.478C436.044,511.102 415.207,501.735 385.037,497.923C364.747,495.359 374.201,470.177 380.974,472.029C368.957,461.246 338.517,502.206 379.479,508.782C368.935,511.244 362.664,519.864 360.795,523.923C334.101,524.086 308.862,524.258 293.032,524.409C293.664,523.672 294.409,523.147 295.279,522.966C290.878,522.787 290.165,517.505 289.975,512.729C289.806,516.73 289.237,522.934 284.361,523.196C285.564,523.245 286.562,523.712 287.369,524.466ZM368.327,523.877C383.793,508.366 398.902,506.483 410.66,509.374C422.417,512.264 430.822,519.93 432.877,523.516C413.999,523.616 390.913,523.742 368.327,523.877ZM474.687,523.303L474.791,523.302C474.814,523.483 474.776,523.474 474.687,523.303ZM291.864,483.52C295.803,483.001 296.225,480.638 296.342,477.214C296.697,481.465 297.802,483.259 300.216,483.469C296.793,484.181 296.823,487.545 296.553,490.821C296.586,486.128 295.931,483.687 291.864,483.52Z" style="fill:white;"/>
        </g>
    </g>
    <g transform="matrix(1,0,0,1,-69,-23)">
        <clipPath id="_clip11">
            <rect x="689.233" y="459.676" width="4.767" height="62.324"/>
        </clipPath>
        <g clip-path="url(#_clip11)">
            <path d="M709.342,523.117C709.877,523.775 688.85,524.638 689.238,522.445C690.513,515.244 702.625,505.221 705.939,494.255C707.507,489.066 706.523,480.928 703.628,476.312C701.805,473.406 693.218,466.88 689.982,474.48C687.182,462.877 702.197,455.857 709.054,461.881C709.054,461.881 709.089,522.806 709.342,523.117Z" style="fill:white;"/>
        </g>
    </g>
    <g transform="matrix(1,0,0,1,-69.1211,-23.3638)">
        <clipPath id="_clip12">
            <rect x="540.312" y="500.092" width="128.471" height="22.271"/>
        </clipPath>
        <g clip-path="url(#_clip12)">
            <path d="M540.312,519.253C548.683,496.228 574.176,508.457 577.905,520.327C584.979,510.086 601.554,499.302 621.053,500.138C642.498,501.057 645.286,510.222 655.203,510.143C662.876,510.082 668.061,504.442 668.061,504.442C671.044,511.158 664.039,518.854 660.58,519.14C663.83,520.827 665.294,528.335 664.048,526.951C663.611,526.464 641.653,528.586 642.429,528.038C645.815,525.653 635.841,508.025 622.069,511.006C630.206,515.756 627.328,528.001 623.61,526.895C624.411,524.214 615.147,514.83 607.651,514.93C595.763,515.088 590.346,524.13 590.346,524.13L564.418,523.589C564.418,523.589 562.641,513.58 551.868,513.567C547.179,513.561 541.477,518.286 540.312,519.253Z" style="fill:white;"/>
        </g>
    </g>
    <g transform="matrix(1,0,0,1,-69,-23)">
        <clipPath id="_clip13">
            <rect x="645.64" y="422.307" width="48.36" height="70.949"/>
        </clipPath>
        <g clip-path="url(#_clip13)">
            <path d="M714.887,454.096C707.517,448.508 696.332,432.089 683.432,432.411C673.207,432.666 673.161,443.77 673.174,444.204C673.481,454.524 685.033,454.931 685.214,452.307C688.321,457.027 678.516,464.346 672.848,466.821C667.655,469.088 664.94,472.959 664.887,477.054C664.806,483.431 675.897,493.665 676.79,492.309C663.858,497.956 645.095,477.232 645.652,459.918C646.778,424.867 676.063,422.119 679.006,422.316C697.517,423.552 715.484,438.127 716.171,439.564C716.599,440.461 718.295,456.679 714.887,454.096Z" style="fill:white;"/>
        </g>
    </g>
    <g transform="matrix(1,0,0,1,-69,-23)">
        <clipPath id="_clip14">
            <rect x="69" y="23" width="338.816" height="492.957"/>
        </clipPath>
        <g clip-path="url(#_clip14)">
            <path d="M280.417,515.948C279.435,512.081 263.219,483.534 257.795,478.903C250.148,472.375 243.197,475.448 242.07,476.034C237.532,478.393 237.047,484.644 238.424,486.391C242.323,491.337 246.05,488.172 244.758,484.545C252.279,485.29 252.535,496.914 247.132,500.352C236.577,507.07 229.581,494.912 229.721,487.632C230.126,466.487 250.855,471.567 253.109,472.792C253.673,470.54 208.275,428.229 200.812,421.499C184.464,406.757 155.01,419.064 153.366,438.453C152.302,450.993 164.781,460.056 171.276,459.5C183.929,458.416 186.275,447.505 186.325,445.434C186.441,440.544 181.82,436.845 179.665,437.283C182.199,439.565 182.86,447.668 175.517,447.525C171.026,447.437 165.764,442.459 171.508,435.039C175.265,430.185 186.539,427.664 192.337,438.908C194.016,442.164 190.837,451.344 190.837,451.344C199.919,450.782 199.848,461.234 198.078,462.831C197.554,461.447 196.768,458.873 192.394,458.796C187.774,458.714 185.046,466.065 171.055,465.844C151.178,465.53 148.31,444.375 148.287,440.962C148.042,404.425 184.061,406.59 184.061,406.59C184.061,406.59 168.205,389.65 159.162,373.759C153.8,364.337 122.589,352.399 115.805,333.633C114.575,330.23 111.194,321.39 111.568,316.392C112.944,298.016 129.355,304.686 126.171,308.21C122.552,304.744 115.181,305.808 115.623,313.915C116.674,333.166 145.564,353.441 150.692,356.055C138.339,334.857 139.369,305.061 139.163,301.572C138.261,286.272 143.758,264.823 142.027,259.254C121.526,193.304 66.316,200.189 60.468,203.12C60.18,203.264 59.17,191.214 60.17,190.922C118.425,173.945 147.503,231.907 147.635,238.693C148.772,232.985 160.1,210.765 162.12,202.34C168.258,176.729 157.464,157.912 154.398,153.083C139.491,129.606 120.87,144.142 122.173,152.215C123.418,159.925 133.345,159.581 135.763,157.685C135.811,165.826 123.003,171.073 114.735,170.599C98.215,169.651 102.703,149.197 102.703,149.197C98.295,153.388 96.38,167.095 86.669,175.981C83.009,179.331 79.304,180.849 75.035,178.48C65.132,172.982 72.828,163.354 76.643,164.11C71.555,167.982 74.19,174.091 79.45,173.976C91.403,173.715 97.197,150.33 105.065,140.955C114.133,130.15 126.222,129.616 130.306,129.558C155.859,129.194 169.592,160.453 170.511,165.552C181.482,154.339 192.889,159.241 192.631,163.017C177.274,161.865 168.013,187.145 169.498,193.624C176.842,179.253 201.594,162.076 214.064,156.965C247.895,143.1 270.066,153.743 273.723,156.39C295.282,171.991 278.957,199.714 277.01,202.205C264.673,217.994 231.824,218.05 215.971,196.807C189.616,161.491 229.64,130.928 232.889,129.043C251.723,118.112 253.837,109.215 253.704,92.325C253.547,72.479 235.544,71.139 232.578,71.232C217.533,71.702 214.436,82.858 214.464,86.46C214.605,105.075 233.543,100.131 234.279,94.756C215.793,99.744 226.365,74.543 238.412,88.198C246.026,96.828 233.196,113.527 220.774,102.924C223.884,105.889 218.809,112.505 212.414,111.843C219.07,105.429 207.624,96.855 208.085,87.225C208.676,74.872 222.897,64.843 235.822,66.58C273.137,71.594 260.065,107.623 259.067,110.469C259.067,110.469 281.34,98.205 284.002,95.214C293.349,84.71 291.889,71.907 291.439,72.015C282.099,74.722 276.242,60.814 269.925,60.916C265.35,60.989 263.183,66.49 263.183,66.49C258.982,61.958 263.734,51.168 270.962,52.051C271.958,50.605 272.095,37.256 271.712,37.387C275.937,39.147 279.95,41.281 285.528,42.554C290.84,36.938 300.075,37.861 302.275,43.486C297.186,43.14 293.729,44.84 293.319,48.803C292.742,54.372 301.115,62.986 293.864,71.206C295.201,73.14 293.989,87.936 290.467,92.237C291.501,91.732 318.563,76.227 319.401,76.069C313.252,76.473 299.759,69.155 299.686,57.863C299.608,45.983 310.934,41.379 316.427,41.571C328.769,42.003 325.234,58.676 317.687,58.488C307.957,58.244 310.157,48.723 312.02,47.452C306.723,47.083 302.459,54.737 304.716,61.369C309.129,74.332 324.493,73.406 327.395,71.772C362.419,52.051 395.257,29.367 400.356,17.872C400.487,17.576 408.134,17.631 407.806,18.091C393.474,38.235 363.662,54.093 355.951,59.056C354.873,59.751 290.352,97.954 275.076,105.479C287.69,103.153 296.639,112.399 296.002,125.049C294.922,146.451 264.74,144.881 265.296,124.623C265.519,116.476 272.688,114.862 275.222,114.922C281.58,115.071 282.105,121.105 282.183,122.49C282.68,131.27 269.782,130.732 268.206,126.303C267.428,131.347 274.236,137.348 280.184,137.128C287.263,136.866 291.936,132.008 291.911,125.028C291.862,110.791 284.483,107.76 277.605,107.92C266.104,108.188 236.338,129.856 224.39,142.465C199.437,168.795 215.279,206.027 247.503,206.991C273.044,207.755 279.052,188.201 278.726,179.131C277.89,155.891 251.594,154.356 240.585,154.497C209.284,154.899 183.056,185.095 179.125,190.063C140.035,239.474 145.762,321.765 153.52,337.756C152.081,305.027 180,285.515 199.073,285.441C236.244,285.295 237.636,318.261 234.227,329.316C229.898,343.351 216.371,350.622 225.285,364.843C221.555,368.112 208.351,360.914 211.627,350.558C205.756,354.363 188.352,353.602 184.168,338.082C179.436,320.535 195.677,316.223 199.858,316.294C217.073,316.585 210.051,346.635 192.234,330.355C192.234,330.355 193.129,343.815 206.183,343.516C215.837,343.295 228.093,335.293 228.343,320.528C228.423,315.812 224.375,292.567 199.058,292.162C194.022,292.082 158.446,296.084 160.661,345.158C162.839,393.407 264.943,454.413 282.641,508.698C282.641,508.698 280.496,516.261 280.417,515.948Z" style="fill:white;fill-rule:nonzero;"/>
        </g>
    </g>
    <g transform="matrix(1,0,0,1,-69,-23)">
        <clipPath id="_clip15">
            <rect x="151.63" y="490.134" width="85.156" height="31.866"/>
        </clipPath>
        <g clip-path="url(#_clip15)">
            <path d="M236.786,525.909C229.27,514.895 215.076,497.782 177.357,502.13C170.729,502.894 165.426,491.867 166.071,490.134C162.425,496.261 163.528,503.511 166.723,508.102C156.857,510.649 154.226,518.22 151.63,525.815L163.631,526.125C165.264,518.892 168.425,517.53 170.494,516.987C168.739,520.509 168.805,524.277 169.359,527.3L180.564,527.249C182.477,508.197 204.37,512.298 207.832,516.219C201.574,517.244 198.901,522.051 198.88,526.19L236.786,525.909Z" style="fill:white;"/>
        </g>
    </g>
    <g transform="matrix(1,0,0,1,-69,-23)">
        <clipPath id="_clip16">
            <rect x="83.96" y="425.732" width="58.396" height="96.268"/>
        </clipPath>
        <g clip-path="url(#_clip16)">
            <path d="M91.545,524.852C93.487,514.134 83.843,503.991 83.961,492.551C84.08,481.082 94.998,473.909 97.206,473.791C95.44,470.473 93.375,467.742 93.64,461.588C94.652,462.568 102.047,462.74 103.953,461.114C105.94,459.419 107.351,458.261 109.855,458.334C113.025,458.426 113.449,460.26 116.083,459.663C111.638,452.571 105.734,431.844 90.381,426.017C95.289,423.172 125.567,442.51 128.718,445.092C133.223,448.784 135.957,447.562 137.044,448.905C134.026,453.041 137.088,453.387 137.249,455.358C137.419,457.428 134.588,457.608 137.221,460.78C140.232,464.406 138.611,469.114 138.611,469.114C131.215,463.472 134.313,471.865 132.982,471.912C127.981,472.09 129.026,468.271 126.354,468.765C122.952,469.393 125.748,472.784 125.878,475.473C125.991,477.79 122.613,484.808 126.125,486.565C127.845,487.426 130.281,486.867 132.159,488.544C134.276,490.434 135.163,485.492 136.837,487.245C140.857,491.454 142.235,490.151 142.342,492.787C142.509,496.869 141.071,496.658 140.87,498.075C140.445,501.07 137.233,502.546 137.153,500.813C137.085,499.359 134.069,523.424 133.305,524.765L130.225,524.547C133.165,514.955 134.591,506.133 135.095,501.293C135.52,497.205 135.335,495.912 134.472,495.555C133.427,495.123 131.385,495.038 131.005,495.872C130.568,496.831 129.667,499.121 129.612,500.339C129.271,507.865 128.011,503.867 127.881,505.402C127.465,510.294 126.162,507.205 126.087,508.753C125.849,513.718 125.629,511.301 125.028,514.014C124.659,515.681 123.991,516.559 124.045,514.524C124.099,512.51 123.406,512.493 123.646,509.213C123.886,505.933 122.206,503.933 122.206,503.933C122.206,503.933 120.619,504.553 120.841,506.187C121.074,507.911 120.701,507.497 120.961,509.891C121.211,512.186 121.334,511.87 121.246,513.853C121.145,516.097 120.446,519.453 119.726,515.933C119.006,512.413 118.526,511.453 118.766,509.293C119.006,507.133 118.606,507.853 118.926,504.813C119.246,501.773 118.926,499.053 118.926,499.053C114.439,496.279 109.885,494.281 105.615,488.993C100.907,499.049 118.932,509.451 120.437,522.811L91.545,524.852Z" style="fill:white;"/>
        </g>
    </g>
    <g transform="matrix(1,0,0,1,-69,-23)">
        <path d="M162.134,113.593L178.979,112.108L172.169,103.916L180.105,109.958L182.973,90.143L184.611,110.009L192.189,104.633L186.403,112.006L200.176,114.259L186.557,114.771L191.984,123.372L183.945,116.972L182,134.124L180.361,116.972L172.323,124.038L178.057,115.283" style="fill:white;"/>
    </g>
    <g transform="matrix(1,0,0,1,-69,-23)">
        <path d="M176.879,295.731C176.194,294.268 173.433,295.557 172.399,289.97C172.004,287.833 173.356,284.557 173.355,284.396C173.338,281.488 172.048,278.146 175.675,279.14C179.545,280.201 181.315,277.037 184.227,276.902C187.226,276.763 187.418,273.579 188.016,270.329C188.45,267.967 188.243,264.532 186.514,265.334C185.931,263.889 192.322,258.505 192.672,257.828C193.616,256 193.531,243.478 191.346,243.038C189.414,242.648 184,244.599 185.168,247.294C186.811,251.089 185.948,252.133 186.963,252.793C188.088,253.523 191.18,252.558 191.031,255.491C190.868,258.695 188.194,260.212 185.325,259.144C183.487,258.46 183.619,255.711 181.599,251.58C180.468,249.269 179.992,242.993 184.365,240.611C186.533,239.43 190.219,236.711 191.905,235.467C193.234,234.487 193.8,233.535 193.87,232.74C193.935,232.011 192.489,232.017 192.362,230.524C192.203,228.643 195.558,229.091 195.558,229.091L195.335,200.177C189.683,200.76 189.493,196.407 190.264,192.845C190.927,189.781 195.437,186.62 198.651,186.875C203.312,187.244 204.757,191.567 204.819,192.964C204.819,192.964 208.935,192.904 208.88,194.375C208.815,196.084 205.45,194.535 204.784,196.904C204.103,199.327 205.049,199.244 204.925,200.168C204.645,202.255 200.982,200.899 200.982,200.899L200.457,229.028C202.077,229.445 203.996,228.829 204.077,231.069C204.142,232.857 201.614,232.011 201.839,234.124C201.985,235.499 206.109,237.845 207.529,240.703C210.485,246.65 214.743,246.295 215.314,241.152C215.653,238.103 216.499,236.339 219.137,236.17C221.713,236.005 222.77,238.119 222.915,241.415C223.043,244.339 215.59,250.539 210.083,250.704C206.767,250.804 202.418,243.063 202.418,243.063C202.418,243.063 202.115,256.331 202.531,258.058C203.017,260.08 206.432,261.618 209.005,261.162C211.641,260.695 216.465,259.672 216.304,263.527C216.194,266.149 215.403,269.421 215.179,271.266C214.936,273.275 214.225,275.046 214.349,277.044C214.474,279.043 214.843,280.604 216.924,280.436C221.704,280.05 224.117,274.214 224.038,274.031C224.038,274.031 224.733,273.549 224.906,277.919C225.035,281.167 224.024,282.732 221.338,285.07C218.891,287.2 215.567,287.681 213.247,289.154C211.242,290.427 209.102,287.976 209.102,287.976C209.102,287.976 209.068,282.629 209.879,281.087C211.839,277.359 209.475,274.933 209.65,271.848C209.812,268.977 211.55,265.878 211.55,265.878C209.603,267.743 205.615,268.182 194.211,269.059C194.211,269.059 192.875,276.796 190.418,279.269C187.384,282.323 183.476,281.277 180.433,284.068C178.453,285.885 176.685,291.01 179.933,292.009C183.182,293.009 177.063,296.125 176.879,295.731Z" style="fill:white;"/>
    </g>
    <g transform="matrix(1,0,0,1,-69,-23)">
        <path d="M602.675,128.387C601.147,138.827 601.142,144.572 590.356,145.563C604.196,147.8 599.948,149.888 602.471,163.501C605.023,149.746 603.857,146.265 614.712,146.073C602.663,144.607 604.07,137.76 602.675,128.387Z" style="fill:white;"/>
    </g>
    <g transform="matrix(1,0,0,1,-218,47)">
        <path d="M602.675,128.387C601.147,138.827 601.142,144.572 590.356,145.563C604.196,147.8 599.948,149.888 602.471,163.501C605.023,149.746 603.857,146.265 614.712,146.073C602.663,144.607 604.07,137.76 602.675,128.387Z" style="fill:white;"/>
    </g>
    <g transform="matrix(1,0,0,1,-426,90)">
        <path d="M597.223,120.124C595.695,130.565 595.899,135.638 585.113,136.629C597.537,139.076 594.367,138.215 596.891,151.827C599.495,138.544 598.158,137.216 608.043,136.447C595.994,134.982 598.618,129.497 597.223,120.124Z" style="fill:white;"/>
    </g>
    <g transform="matrix(1,0,0,1,-69,-23)">
        <clipPath id="_clip17">
            <rect x="226.576" y="23" width="458.204" height="464.966"/>
        </clipPath>
        <g clip-path="url(#_clip17)">
            <path d="M362.484,142.527L359.541,118.374L355.627,114.69L360.616,111.901L366.711,101.201C364.252,101.215 364.219,96.759 366.356,96.601L367.197,86.552L368.544,96.545C371.071,96.607 370.708,101.08 368.898,101.044L375.563,106.791L386.297,92.833C384.407,92.865 384.373,87.986 386.618,87.866L387.678,77.693L388.789,87.875C390.845,87.9 390.997,92.884 388.979,92.887L399.709,109.427L406.333,112.557L417.087,110.914L426.915,85.659C424.485,85.691 424.56,80.877 427.034,80.928L427.939,71.745L429.033,80.934C431.429,80.946 431.609,85.738 429.047,85.779L438.931,111.782C443.231,113.931 448.043,115.962 451.672,118.375C450.049,118.877 447.863,119.823 446.196,120.716L443.803,143.112C449.788,132.289 470.056,133.251 478.265,139.879C491.793,150.802 487.82,170.268 475.053,174.219C480.858,163.409 478.442,159.164 467.584,159.306C458.034,159.431 458.122,156.258 458.122,156.258C463.81,156.249 465.6,142.77 455.431,142.815C445.506,142.859 443.802,159.894 443.802,159.894C447.918,160.472 448.969,163.02 449.303,166.028C454.03,160.061 463.043,163.123 462.944,167.669C460.581,166.348 455.131,167.014 454.988,172.83C454.76,182.107 484.142,187.002 483.626,224.632C483.214,254.706 472.446,284.574 461.307,305.92C456.925,314.319 452.713,321.913 450.223,333.436C471.012,339.487 500.049,339.641 526.172,332.642C504.726,321.293 507.809,282.86 535.657,282.987C548.528,283.046 560.714,299.736 555.478,303.711C555.85,301.954 551.876,296.707 546.683,296.498C540.376,296.243 540.573,311.445 532.311,311.047C533.607,310.582 533.424,302.897 524.271,304.127C509.575,306.103 524.512,332.431 539.5,328.119C531.355,322.4 541.967,309.65 546.174,313.655C540.729,316.24 546.065,324.186 552.094,323.529C563.402,322.297 575.924,314.123 575.581,295.646C575.227,276.648 545.218,251.269 536.796,241.773C533.664,238.242 525.179,234.767 520.81,236.149C522.045,240.324 517.251,247.321 514.82,249.023C508.966,253.121 513.428,258.075 516.627,259.295C511.538,261.521 506.291,259.656 504.957,253.212C502.442,254.408 497.903,251.83 493.833,253.087C496.799,249.888 495.281,245.122 497.104,242.386C490.389,237.632 493.665,230.562 497.425,229.507C496.986,232.294 498.238,235.386 501.34,236.113C505.946,237.191 513.006,228.401 518.914,234.211C526.346,233.285 530.367,234.661 534.05,236.441C534.05,236.441 531.832,227.802 531.933,221.989C532.033,216.179 539.876,207.747 542.5,207.137C542.5,207.137 538.294,195.721 549.252,191.085C562.542,185.461 550.847,173.329 550.847,173.329C562.291,171.892 566.546,178.401 566.13,184.818C572.787,184.321 578.608,188.225 583.729,187.493C578.948,191.601 579.071,197.251 576.548,201.321C579.869,205.579 584.374,213.527 574.8,221.222C576.014,218.634 573.498,208.068 564.415,210.537C551.162,214.14 546.239,211.581 543.99,209.294C543.99,209.294 533.577,215.954 534.03,223.419C534.285,227.604 537.341,235.86 537.721,235.629C537.389,233.735 542.801,218.466 556.97,224.603C567.414,229.126 563.113,243.904 558.674,246.215C558.674,246.215 560.45,240.143 557.945,238.319C554.858,236.072 551.482,237.896 549.331,235.076C550.865,235.115 553.17,229.05 546.775,228.839C541.056,228.65 538.866,240.416 542.706,241.642C544.014,239.212 548.61,238.987 550.558,241.917C547.412,241.284 542.8,244.848 553.332,254.087C583.844,280.853 581.526,295.009 580.847,306.315C590.355,295.445 611.275,281.968 610.373,237.818C609.586,199.296 572.693,155.992 554.888,137.731C563.056,157.033 537.818,196.487 501.075,171.87C491.901,165.723 490.848,132.647 500.283,130.729C500.283,130.729 498.679,139.868 501.263,143.563C507.569,152.582 526.082,140.327 527.812,149.293C527.812,149.293 518.413,154.76 527.835,164.92C530.128,167.392 543.573,170.519 547.455,152.801C549.545,143.263 546.248,130.941 542.177,130.489C536.55,141.155 526.028,138.508 520.989,133.142C534.577,130.891 532.197,115.763 504.234,100.006C461.832,76.113 358.016,45.312 358.016,45.312C356.086,47.981 350.958,49.253 349.353,49.024C351.025,48.476 353.142,46.052 353.767,44.021C325.458,34.959 301.112,26.482 286.65,16.188C286.65,16.188 340.619,10.931 348.269,14.745C356.13,18.664 363.114,23.564 363.11,33.199C363.108,35.999 362.207,38.733 360.383,41.294C385.531,49.538 403.457,52.739 408.379,45.304C415.563,34.453 418.991,25.834 433.84,26.784C449.722,27.8 447.575,44.622 455.737,38.727C456.649,41.706 454.41,43.974 447.84,42.689C447.84,42.689 449.741,54.716 439.746,54.696C432.406,54.682 428.76,50.001 429.119,45.565C429.413,41.938 430.434,40.855 433.648,40.886C441.32,40.961 436.906,49.581 433.555,47.913C435.514,51.564 443.523,50.199 443.948,43.297C444.191,39.353 440.677,31.182 431.163,31.159C419.837,31.132 416.926,43.644 417.081,46.579C417.26,49.961 416.451,59.349 439.778,67.658C531.316,100.262 589.175,146.97 616.235,217.422C623.86,195.525 683.516,185.112 684.763,234.47C685.717,272.266 646.428,270.532 641.539,263.779C649.093,265.057 658.093,256.391 658.203,252.003C658.425,243.154 646.998,242.455 648.995,227.3C648.995,227.3 662.356,235.024 664.21,220.955C665.754,209.235 657.583,206.352 644.893,206.576C625.901,206.911 623.637,222.867 623.637,222.867C643.274,223.001 640.202,243.108 636.336,243.722C636.336,243.722 637.523,235.843 628.223,236.103C618.59,236.372 622.482,246.234 621.922,255.392C620.268,282.437 601.702,323.451 553.467,335.322C532.796,340.409 489.323,350.751 448.557,339.337C443.016,350.299 452.361,402.421 462.277,401.807C470.388,401.305 467.782,393.186 467.782,393.186C474.16,395.129 476.245,410.619 464.984,411.625C473.393,427.482 509.404,410.482 493.846,394.084C487.93,387.848 482.643,400.364 482.643,400.364C478.796,396.791 479.701,392.318 481.247,383.68C483.042,373.645 467.796,374.989 465.214,376.726C465.19,368.019 499.785,358.286 506.582,394.079C512.147,423.386 477.707,424.879 474.424,423.349C498.159,442.088 522.334,463.137 555.297,465.567C548.927,461.278 541.635,459.189 538.177,448.593C538.177,448.593 528.162,447.853 527.456,434.587C526.85,423.218 515.503,427.804 514.138,429.687C514.498,418.436 523.974,416.215 529.524,420.8C528.767,414.768 535.565,412.941 536.37,406.035C537.845,412.095 545.647,413.821 545.939,417.812C555.613,415.214 562.643,421.082 561.075,427.538C559.853,424.337 549.801,423.592 548.762,436.654C548.039,445.732 543.176,448.263 541.341,448.016C541.383,449.669 550.325,465.481 576.98,464.179C591.047,463.492 595.541,458.039 595.541,458.039C595.541,458.039 566.393,452.888 566.316,428.905C566.279,417.194 567.505,408.894 575.286,400.513C585.309,389.717 569.786,382.597 567.819,383.641C576.219,373.726 594.022,381.881 588.957,395.982C588.957,395.982 598.093,390.18 608.62,404.19C616.803,415.079 611.355,441.343 591.237,432.918C574.351,425.846 585.511,407.749 595.392,411.65C593.63,409.194 575.362,407.742 576.191,429.126C576.932,448.247 607.523,456.57 621.074,446.33C631.353,438.563 638.565,417.526 625.886,410.245C622.681,408.405 617.168,411.125 618.941,416.077C612.135,409.293 617.171,399.097 626.562,401.291C626.562,401.291 624.8,398.68 619.345,392.273C609.172,380.327 597.644,383.802 596.492,390.342C594.033,375.293 614.907,373.873 623.93,384.311C622.523,356.994 645.877,361.697 649.528,367.147C649.528,367.147 636.676,360.891 637.393,381.726C637.708,390.869 644.788,400.523 643.927,423.543C643.009,448.111 620.6,473.985 595.323,482.592C568.12,491.854 541.177,489.967 503.728,470.438C463.931,449.684 446.393,409.074 438.736,372.243C436.715,362.518 411.225,349.309 399.751,361.273C385.102,376.547 403.418,388.672 407.457,388.724C420.581,388.895 418.989,377.079 417.552,376.111C416.511,385.235 402.522,381.663 406.506,373.169C411.273,363.005 425.333,369.991 425.357,379.922C425.378,388.508 418.105,390.854 418.105,390.854C423.365,392.851 421.182,402.413 418.434,403.541C418.85,401.107 416.17,395.15 410.334,395.233C395.65,395.443 388.903,384.569 388.578,375.486C387.941,357.659 405.869,349.453 415.587,351.672C411.018,346.301 413.944,338.73 415.199,336.247C418.141,330.425 425.836,330.303 425.836,330.303C420.965,323.616 390.527,347.17 361.288,328.618C347.902,320.125 355.888,309.464 361.647,312.245C359.735,312.527 356.688,313.289 356.944,317.193C357.454,324.965 374.12,328.661 384.538,328.262C401.159,327.625 415.965,325.806 415.965,325.806C404.264,321.843 383.882,300.433 372.71,294.62C362.183,289.143 342.022,279.901 309.722,279.592C259.765,279.112 237.636,321.551 237.17,342.445C236.539,370.705 256.796,378.236 259.357,378.056C262.768,377.816 270.4,370.223 268.955,365.48C268.084,362.617 267.71,364.326 265.302,362.374C262.895,360.422 264.531,360.165 264.13,357.781C263.639,354.86 264.811,353.648 266.077,353.994C266.782,354.187 267.405,354.696 267.849,356.175C268.522,358.412 268.917,358.059 271.39,360.987C273.863,363.915 275.891,361.155 271.677,356.666C270.003,354.883 270.316,350.956 271.324,350.12C274.28,347.672 269.093,345.07 269.093,345.07C268.771,344.394 269.656,343.949 269.839,341.889C270.072,339.271 268.435,339.72 267.964,338.638C267.256,337.015 268.098,334.709 269.28,334.354C270.505,333.987 272.042,335.487 273.304,338.26C275.15,342.319 276.422,341.337 276.847,342.017C276.614,342.691 276.981,345.858 279.822,348.497C281.525,350.079 281.12,351.411 283.336,351.965C288.234,353.191 285.572,349.947 285.236,348.637C284.824,347.029 285.456,347.601 286.222,346.725C286.662,346.222 286.337,344.637 285.604,343.022C284.933,341.544 283.977,341.523 283.978,338.146C283.978,335.981 284.831,335.362 285.198,333.547C285.586,331.63 285.342,331.719 284.431,330.092C283.52,328.465 284.354,323.874 284.354,323.874C283.153,323.941 282.42,320.098 285.391,319.983C289.085,319.841 287.688,323.885 286.095,323.827C286.095,323.827 286.199,323.975 286.068,326.058C285.938,328.14 287.37,330.083 289.062,331.514C290.753,332.946 293.214,331.082 293.105,329.965C292.777,326.584 294.001,324.184 295.894,321.819C297.846,319.38 296.318,305.019 295.777,300.513C295.531,298.465 290.674,295.536 289.192,295.426C290.354,295.091 291.606,294.858 292.882,294.909C292.882,294.909 291.861,289.831 296.321,289.952C300.709,290.07 299.965,294.929 299.965,294.929C301.354,294.844 302.225,295.172 303.126,295.384C301.169,295.984 297.89,297.199 298.252,300.017C298.851,304.676 299.651,322.851 300.225,323.422C302.829,326.016 303.047,330.737 305.31,332.745C306.142,330.329 307.763,329.179 308.861,327.515C307.18,326.438 308.921,321.427 312.253,323.182C315.246,324.758 312.194,328.973 310.237,327.93C310.237,327.93 309.873,328.621 308.711,330.537C307.683,332.233 306.959,332.552 307.011,335.003C307.112,339.732 307.829,337.663 308.015,340.126C308.235,343.028 306.096,342.574 306.25,345.039C306.308,345.956 309.779,346.611 308.724,348.039C307.289,347.461 304.704,349.077 304.97,351.693C305.28,354.741 306.696,357.646 308.791,356.542C311.152,355.298 314.304,353.76 314.994,352.231C317.141,347.477 321.167,345.073 320.555,343.088C320.67,342.422 321.928,341.663 322.021,341.393C322.856,338.967 321.372,338.257 323.888,335.249C325.011,333.905 328.091,334.618 328.818,337.696C329.301,339.736 327.37,340.22 327.019,340.2C327.564,339.765 327.339,339.113 326.936,337.3C326.73,336.374 325.312,337.32 325.172,339.317C324.983,342.029 326.562,341.693 326.389,342.796C323.903,344.436 323.614,346.371 325.129,349.603C326.209,351.91 325.038,354.183 326.813,354.119C328.53,354.057 328.073,352.954 329.141,349.074C330.285,344.919 331.359,345.52 332.581,338.924C333.595,333.446 331.233,334.558 331.63,332.96C332.027,331.363 334.846,330.793 334.846,330.793C334.097,325.865 338.02,327.325 337.547,324.545C336.836,320.369 335.74,322.351 335.8,317.677C335.868,312.295 339.174,309.758 339.174,309.758C338.156,308.34 342.783,304.604 344.538,308.01C345.297,309.484 345.686,313.116 340.749,312.137C340.749,312.137 338.951,312.967 338.937,316.541C338.917,321.432 342.407,321.709 342.146,325.353C341.886,328.997 341.17,328.606 341.059,330.658C340.971,332.275 343.348,332.293 343.189,334.827C342.555,334.773 339.545,338.036 342.759,341.792C345.732,345.265 343.4,350.975 343.4,350.975C343.4,350.975 349.64,342.16 358.75,341.835C367.86,341.509 378.881,346.334 379.152,360.374C379.61,384.069 354.794,376.583 354.794,376.583C354.794,376.583 364.144,377.327 364.299,370.404C364.427,364.691 359.244,365.695 359.166,358.901C375.818,361.509 371.448,346.476 358.843,346.978C352.049,347.248 348.885,351.339 347.665,353.285C351.423,354.185 358.064,359.202 353.686,364.995C351.735,359.497 344.226,361.391 344.414,368.335C344.912,386.692 335.479,397.581 327.703,403.695C328.323,398.416 329.853,385.452 324.821,377.48C322.393,373.634 315.209,364.757 301.418,364.946C292.732,365.065 285.895,370.19 280.895,382.447C279.831,385.056 275.809,388.247 271.962,387.243C274.199,391.81 278.535,392.201 282.861,391.386C282.861,391.386 285.538,398.562 290.262,400.573C295.084,402.627 306.127,402.313 307.261,392.98C307.716,389.236 306.733,380.486 299.102,383.222C290.348,386.36 296.524,394.472 301.71,392.601C299.276,398.583 288.487,395.607 288.477,384.58C288.467,374.598 296.097,370.681 304.673,370.422C312.599,370.183 322.028,377.734 322.125,389.904C322.25,405.501 308.027,412.438 300.139,415.538C291.47,416.824 282.842,416.726 277.668,416.264C253.985,414.145 238.493,395.181 233.379,386.02C222.14,365.888 227.408,334.733 230.986,323.127C234.816,310.702 245.072,291.716 263.731,280.384C299.573,258.617 348.481,273.046 371.518,286.273C353.959,264.555 348.434,237.423 333.886,237.467C324.498,237.496 322.466,248.406 322.466,248.406C319.654,241.324 323.221,232.986 332.952,229.29C332.952,229.29 309.841,214.336 308.751,196.776C308.463,192.122 311.493,187.745 314.447,187.958C317.918,188.208 318.593,190.15 318.593,190.15C318.518,184.784 317.31,180.402 308.16,182.939C308.16,182.939 306.711,177.621 312.809,172.64C315.168,170.714 330.601,164.016 330.903,176.224C330.994,179.907 325.782,183.043 323.024,181.302C323.822,185.604 331.923,188.655 331.522,194.363C331.153,199.622 323.9,201.77 323.9,201.77C328.381,202.075 343.968,198.359 344.183,183.399C344.281,176.591 337.449,164.893 324.573,164.935C315.151,164.966 309.718,171.411 306.506,173.585C304.109,162.063 319.661,142.952 339.178,150.35L336.734,128.446C335.321,127.325 333.861,126.082 331.92,125.023L337.616,121.613L341.196,111.747C339.311,111.659 339.313,107.993 341.222,107.942L341.861,99.441L343.01,107.957C344.737,107.971 344.714,112.014 343.105,111.955L346.459,115.23L348.6,113.496C346.784,113.31 346.705,109.612 348.64,109.57L349.6,101.194L350.535,109.608C352.348,109.681 352.611,113.648 350.645,113.556L357.723,123.881L360.441,125.76L360.599,127.061L358.091,126.958L357.878,142.962L362.484,142.527ZM430.124,354.396C432.817,355.112 436.14,357.301 437.159,358.892C437.088,358.097 437.139,346.385 439.496,335.173C437.57,333.849 419.881,326.598 417.222,340.368C416.525,343.979 420.326,346.515 422.942,346.545C426.087,346.581 425.399,341.782 423.577,340.798C428.77,339.545 433.072,343.278 432.973,348.239C432.915,351.101 431.616,353.484 430.124,354.396ZM408.643,173.753C405.302,170.498 398.288,162.815 398.897,156.192C399.36,151.148 406.577,145.071 411.846,145.125C415.435,145.162 422.43,147.589 422.038,153.797C421.612,160.533 416.008,160.675 416.008,160.675C422.98,156.731 411.791,149.073 409.914,157.608C409.078,161.408 411.599,165.541 416.07,165.435C425.327,165.215 425.176,155.657 425.176,155.657C427.737,157.439 431.942,156.85 432.228,151.883C432.228,151.883 428.014,153.724 425.711,151.128C424.158,149.377 423.028,141.658 411.542,141.901C397.313,142.202 395.138,152.032 394.878,158.712C394.575,166.461 398.904,172.43 401.022,174.87C379.515,178.691 346.328,190.281 346.348,222.711C361.605,175.029 392.964,198.489 395.427,176.745C398.331,177.596 399.322,186.564 397.783,188.318C402.239,188.024 429.582,201.765 422.594,229.073C416.615,252.436 431.203,251.938 433.734,251.052C428.376,259.745 413.361,258.026 410.081,247.655C395.971,259.263 376.419,250.458 376.012,234.241C375.677,220.884 383.751,212.278 394.349,216.645C387.874,216.185 381.751,233.247 398.35,233.557C407.707,233.731 412.459,224.581 412.586,218.505C412.716,212.28 412.003,201.176 397.563,195.608C400.066,203.159 399.894,209.164 388.347,212.233C398.096,201.165 381.019,190.639 370.597,202.747C377.878,202.745 381.047,209.093 380.263,214.386C376.179,208.17 359.533,205.77 354.869,228.444C350.997,247.271 374.552,287.523 396.61,305.405C408.704,315.209 422.674,323.018 440.812,329.091C440.812,329.091 446.152,312.802 447.085,310.628C459.902,280.761 478.425,250.984 477.641,220.774C476.818,189.088 445.166,174.042 418.018,173.162C417.82,173.156 417.593,173.153 417.336,173.152L417.07,173.153C415.294,173.167 412.348,173.328 408.643,173.753ZM506.478,238.011C509.154,238.011 511.328,240.184 511.328,242.861C511.328,245.538 509.154,247.711 506.478,247.711C503.801,247.711 501.628,245.538 501.628,242.861C501.628,240.184 503.801,238.011 506.478,238.011ZM561.787,189.04C566.245,189.04 569.864,192.659 569.864,197.117C569.864,201.575 566.245,205.195 561.787,205.195C557.329,205.195 553.709,201.575 553.709,197.117C553.709,192.659 557.329,189.04 561.787,189.04ZM355.047,39.049C355.695,38.244 355.044,28.884 347.805,25.835C340.534,22.772 309.728,22.518 309.728,22.518C325.409,28.902 355.047,39.049 355.047,39.049Z" style="fill:white;"/>
        </g>
    </g>
    <g transform="matrix(1,0,0,1,-69,-23)">
        <path d="M633.723,319.389C631.596,306.753 630.849,305.728 621.174,303.634C631.004,302.276 633.19,299.828 633.698,287.637C634.881,299.584 637.41,302.571 644.7,303.986C637.61,304.937 635.215,305.838 633.723,319.389Z" style="fill:white;"/>
    </g>
    <g transform="matrix(1,0,0,1,-364.457,104.806)">
        <path d="M633.723,319.389C631.596,306.753 630.849,305.728 621.174,303.634C631.004,302.276 633.19,299.828 633.698,287.637C634.881,299.584 637.41,302.571 644.7,303.986C637.61,304.937 635.215,305.838 633.723,319.389Z" style="fill:white;"/>
    </g>
    <g transform="matrix(0.849468,0,0,0.849468,-388.353,191.585)">
        <path d="M633.723,319.389C631.596,306.753 630.849,305.728 621.174,303.634C631.004,302.276 633.19,299.828 633.698,287.637C634.881,299.584 637.41,302.571 644.7,303.986C637.61,304.937 635.215,305.838 633.723,319.389Z" style="fill:white;"/>
    </g>
    <g transform="matrix(0.763611,0,0,0.763611,-319.176,170.892)">
        <path d="M633.723,319.389C631.596,306.753 630.849,305.728 621.174,303.634C631.004,302.276 633.19,299.828 633.698,287.637C634.881,299.584 637.41,302.571 644.7,303.986C637.61,304.937 635.215,305.838 633.723,319.389Z" style="fill:white;"/>
    </g>
    <g transform="matrix(0.659823,0,0,0.659823,-279.349,219.083)">
        <path d="M633.723,319.389C631.596,306.753 630.849,305.728 621.174,303.634C631.004,302.276 633.19,299.828 633.698,287.637C634.881,299.584 637.41,302.571 644.7,303.986C637.61,304.937 635.215,305.838 633.723,319.389Z" style="fill:white;"/>
    </g>
    <g transform="matrix(0.554266,0,0,0.554266,-168.226,258.734)">
        <path d="M633.723,319.389C631.596,306.753 630.849,305.728 621.174,303.634C631.004,302.276 633.19,299.828 633.698,287.637C634.881,299.584 637.41,302.571 644.7,303.986C637.61,304.937 635.215,305.838 633.723,319.389Z" style="fill:white;"/>
    </g>
    <g transform="matrix(0.542504,0,0,0.542504,-204.605,215.064)">
        <path d="M633.723,319.389C631.596,306.753 630.849,305.728 621.174,303.634C631.004,302.276 633.19,299.828 633.698,287.637C634.881,299.584 637.41,302.571 644.7,303.986C637.61,304.937 635.215,305.838 633.723,319.389Z" style="fill:white;"/>
    </g>
    <g transform="matrix(1,0,0,1,-69,-23)">
        <path d="M576.399,367.647C575.21,359.041 581.181,355.232 587.88,356.51C586.575,350.161 589.385,347.787 593.303,348.212C589.746,337.165 605.3,331.229 608.22,340.408C609.238,335.552 616.119,334.505 617.781,339.242C620.548,330.24 629.33,330.211 634.104,334.764C633.217,334.415 619.528,332.603 622.877,351.081C623.862,356.52 626.223,371.165 619.33,374.123C608.681,378.693 599.847,367.892 599.521,367.598C587.544,356.784 577.843,363.739 576.399,367.647ZM615.171,367.395C615.213,366.679 614.846,360.848 613.29,355.868C611.733,350.888 608.986,346.76 604.265,349.448C595.546,354.413 613.14,366.913 615.171,367.395Z" style="fill:white;"/>
    </g>
    <g transform="matrix(1,0,0,1,-69,-23)">
        <path d="M523.236,370.414C532.63,367.372 533.824,364.491 535.435,353.323C536.997,364.452 538.439,368.059 546.468,370.516C539.028,371.59 536.695,374.479 535.476,386.073C533.168,376.88 533.284,371.981 523.236,370.414Z" style="fill:white;"/>
    </g>
    <g transform="matrix(1,0,0,1,-69,-23)">
        <path d="M407.326,254.034C404.087,254.101 399.435,257.692 399.301,264.713C399.178,271.192 391.793,271.999 389.894,268.932C388.625,274.072 395.354,278.392 400.525,275.893C400.515,279.161 406.689,281.492 406.864,285.424C406.854,281.448 413.294,279.139 413.401,276.115C417.849,278.844 423.395,276.132 424.973,269.736C424.659,270.252 423.009,270.972 420.398,270.852C417.209,270.707 415.074,265.581 414.575,262.383C414.115,259.442 411.236,253.952 407.326,254.034Z" style="fill:white;"/>
    </g>
    <g transform="matrix(1,0,0,1,-69,-23)">
        <clipPath id="_clip18">
            <rect x="652.58" y="274.328" width="41.42" height="125.724"/>
        </clipPath>
        <g clip-path="url(#_clip18)">
            <path d="M703.596,302.545C703.596,302.545 694.844,295.026 694.97,292.876C695.039,291.704 696.889,289.985 695.078,289.923C693.266,289.86 690.014,290.534 688.224,289.489C685.881,288.121 681.021,282.057 679.185,283.027C679.869,284.902 680.332,287.063 678.599,289.501C676.564,282.966 674.487,276.921 667.674,274.328C669.041,277.619 669.508,281.331 669.031,286.214C667.324,284.762 665.01,284.39 662.427,284.772C664.03,286.481 665.682,288.2 665.804,290.676C664.606,289.836 662.231,289.93 660.247,290.194C662.204,292.052 663.662,294.235 663.806,297.048C664.071,296.853 661.189,294.818 660.29,296.141C659.745,296.943 661.183,298.32 660.064,299.608C659.065,300.756 655.835,303.26 655.481,303.055C655.576,304.835 656.578,304.41 657.128,306.43C658.183,310.309 659.872,307.252 661.335,309.301C662.199,310.51 663.037,312.173 662.102,312.121C660.509,312.034 659.172,313.909 659.574,314.987C659.942,314.473 662.194,314.369 662.188,316.767C662.182,318.761 656.202,322.833 653.873,321.597C653.873,321.597 653.125,323.021 652.642,325.273C652.176,327.445 654.54,326.228 653.353,329.539C652.166,332.849 653.972,333.241 655.303,334.349C657.627,336.284 661.55,337.884 664.799,337.759C668.047,337.634 669.911,337.89 669.286,334.891C668.662,331.893 668.187,330.238 669.552,330.654C671.744,331.323 672.408,331.182 672.408,331.182C672.777,331.49 670.612,335.349 670.036,338.012C669.414,340.893 670.007,342.626 670.99,346.71C672.054,351.132 666.185,351.38 666.185,351.38C668.492,353.726 670.743,354.436 673.352,349.792C681.397,351.261 682.444,347.796 681.852,345.458C682.657,345.718 677.415,349.377 675.205,346.938C673.342,344.883 672.087,339.103 675.612,333.465C678.34,329.102 679.859,326.532 679.547,324.72C679.235,322.909 681.109,323.658 681.546,325.907C681.983,328.156 683.125,328.406 682.626,330.28C682.126,332.154 679.15,330.759 679.15,330.759C679.15,330.759 678.567,333.54 682.205,333.835C685.007,334.062 686.519,334.863 689.58,331.99C692.641,329.116 691.855,326.628 690.481,324.691C689.107,322.755 687.418,319.39 686.669,317.141C685.919,314.892 685.415,309.239 687.168,308.729C688.085,308.462 690.468,308.948 691.342,312.759C692.217,316.569 694.188,317.379 692.654,320.661C690.974,324.256 693.5,327.338 693.664,328.593C693.826,329.832 691.665,332.216 690.478,334.215C689.292,336.214 689.416,334.465 689.292,337.963C689.167,341.461 689.684,341.006 688.247,343.817C686.81,346.628 681.604,350.769 681.604,350.769C681.413,351.981 683.424,354.634 683.534,356.165C683.721,358.783 679.779,361.835 680.021,366.276C680.394,373.142 684.118,376.089 684.118,376.089C684.118,376.089 671.646,380.759 670.038,388.202C668.736,394.23 674.287,400.989 674.925,399.944C673.821,397.999 673.479,394.944 673.501,393.2C675.202,396.155 677.108,398.356 679.172,399.626C678.483,399.886 676.74,393.456 676.635,391.374C676.507,388.853 677.099,387.639 678.036,387.577C678.973,387.515 679.023,392.133 680.405,391.828C681.587,391.566 681.334,387.478 682.334,385.854C683.333,384.23 683.346,386.738 687.406,386.051C691.466,385.364 691.086,382.574 692.523,386.259C693.96,389.945 695.086,396.624 696.16,397.553C699.972,400.85 704.13,395.349 707.316,396.911C710.502,398.473 703.596,302.545 703.596,302.545Z" style="fill:white;"/>
        </g>
    </g>
</svg>
