<?xml version="1.0" encoding="UTF-8" standalone="no"?>
<!DOCTYPE svg PUBLIC "-//W3C//DTD SVG 1.1//EN" "http://www.w3.org/Graphics/SVG/1.1/DTD/svg11.dtd">
<svg width="100%" height="100%" viewBox="0 0 1000 1000" version="1.1" xmlns="http://www.w3.org/2000/svg" xmlns:xlink="http://www.w3.org/1999/xlink" xml:space="preserve" xmlns:serif="http://www.serif.com/" style="fill-rule:evenodd;clip-rule:evenodd;stroke-linejoin:round;stroke-miterlimit:2;">
    <g transform="matrix(1.66251,0,0,1.66251,-341.275,-246.838)">
        <path d="M482.651,253.419L476.251,293.547L450.075,299.947L475.419,306.411L481.947,344.683L489.179,306.795L512.283,300.075L488.539,293.867L482.651,253.419Z" style="fill:white;"/>
        <g transform="matrix(0.550288,0,0,0.550288,261.448,85.1814)">
            <path d="M482.651,253.419L476.251,293.547L450.075,299.947L475.419,306.411L481.947,344.683L489.179,306.795L512.283,300.075L488.539,293.867L482.651,253.419Z" style="fill:white;"/>
        </g>
        <path d="M556.917,334.107C556.387,333.748 552.885,330.501 546.587,330.637C541.675,330.744 533.194,333.504 533.231,339.524C533.265,344.983 538.079,349.885 544.534,350.034C550.99,350.184 555.912,346.598 557.659,343.668C559.405,340.739 568.861,314.864 568.861,314.864C573.418,318.29 581.526,321.412 579.356,333.774C584.703,329.776 580.48,312.846 571.286,306.344L572.564,303.068C587.761,311.668 585.68,320.332 577.184,329.02C577.184,329.02 589.128,325.07 587.473,313.384C586.592,307.166 572.015,292.944 573.809,287.437L556.917,334.107" style="fill:white;fill-rule:nonzero;"/>
        <g transform="matrix(1.11159,0,0,1.11159,-59.1479,-33.5339)">
            <circle cx="539.803" cy="298.219" r="7.456" style="fill:white;"/>
        </g>
        <path d="M396.838,393.272C397.06,396.602 401.231,420.854 372.982,420.05C353.651,419.5 348.357,403.446 348.744,393.908C349.322,379.688 363.608,364.349 385.201,364.336C408.282,364.321 426.11,376.442 427.977,403.112C429.402,423.47 412.028,450.441 372.866,450.054C318.118,449.513 299.579,377.477 344.351,346.625C366.717,331.212 402.353,330.617 422.565,342.807C454.081,361.816 457.871,387.137 458.081,399.717L513.464,399.556L513.753,385.573C508.734,385.296 502.835,380.871 502.376,371.768C502.025,364.794 508.952,359.228 516.171,359.475C523.119,359.714 529.123,364.301 528.877,372.487C528.573,382.624 520.975,385.12 518.844,385.34L518.772,399.652L572.281,399.892C572.485,382.378 588.564,334.404 639.842,333.764C684.304,333.209 700.226,355.715 707.942,374.146C715.976,393.336 711.294,449.879 655.164,450.548C610.365,451.082 601.564,414.988 602.076,404.923C602.541,395.763 609.462,363.948 642.876,363.845C664.793,363.777 681.702,376.139 682.087,394.677C682.352,407.411 668.756,420.851 655.742,420.66C630.049,420.283 634.035,392.488 634.035,392.488C628.73,397.545 628.588,426.063 654.809,426C669.074,425.966 686.4,419.379 687.297,396.953C688.69,362.11 655.903,356.574 643.611,356.632C615.054,356.765 596.994,383.99 596.72,402.511C596.516,416.327 599.03,430.52 619.889,458.337C640.378,485.661 672.15,527.878 669.093,570.135C666.118,611.264 644.624,641.071 624.216,654.915C602.56,669.605 558.715,688.259 545.1,696.722C519.389,712.704 515.112,734.05 515.112,734.05C515.112,734.05 513.904,718.61 490.605,700.723C472.79,687.047 422.74,665.532 411.802,659.154C392.422,647.853 349.248,602.57 363.513,548.564C375.721,502.345 387.197,490.791 398.27,475.026C408.839,459.978 433.091,428.374 432.752,400.679C432.42,373.531 404.208,355.311 381.002,356.515C360.148,357.597 343.129,373.768 342.57,395.104C342.297,405.491 351.128,426.596 372.906,427.092C403.856,427.796 402.285,396.883 396.838,393.272ZM457.182,413.852L513.502,414.006L513.4,432.796C504.485,433.211 480.158,436.01 466.13,448.954C447.972,465.71 437.764,480.462 437.674,500.052C437.582,519.984 446.818,533.71 458.173,533.953C465.286,534.106 468.344,530.105 468.024,525.725C467.722,521.593 464.153,519.011 459.298,519.755C453.411,520.658 448.831,522.128 445.747,515.45C442.442,508.295 437.435,490.23 454.436,473.101C479.888,447.457 504.348,448.128 513.136,448.308L513.788,550.517L501.402,550.583L501.13,476.048C501.104,473.698 500.619,465.286 489.845,465.661C479.198,466.032 475.685,472.253 475.667,475.292C475.59,488.631 494.536,484.541 495.551,482.335L496.218,550.643L483.701,551.004L483.079,505.329C483.088,503.424 483.288,494.444 470.491,494.769C459.304,495.053 457.89,501.761 457.941,504.87C458.113,515.252 475.53,515.546 478.384,511.826L477.794,576.713C473.139,576.648 442.949,558.493 438.638,576.886C435.598,589.862 445.762,594.12 448.88,594.147C457.232,594.218 459.149,585.391 455.444,581.316C451.606,577.094 447.019,582.362 447.019,582.362C446.898,581.977 449.74,574.505 456.852,579.169C466.388,585.421 451.502,613.623 451.502,613.623C447.153,613.754 410.645,599.013 410.345,567.466C409.898,520.586 437.095,474.003 443.869,458.649C448.266,448.686 455.899,428.593 457.182,413.852ZM574.951,413.852L518.631,414.006L518.733,432.796C527.648,433.211 551.975,436.01 566.002,448.954C584.16,465.71 594.369,480.462 594.459,500.052C594.55,519.984 585.314,533.71 573.96,533.953C566.847,534.106 563.789,530.105 564.109,525.725C564.411,521.593 567.979,519.011 572.835,519.755C578.722,520.658 583.302,522.128 586.386,515.45C589.69,508.295 594.697,490.23 577.697,473.101C552.245,447.457 527.785,448.128 518.997,448.308L518.344,550.517L530.73,550.583L531.003,476.048C531.029,473.698 531.513,465.286 542.287,465.661C552.934,466.032 556.448,472.253 556.465,475.292C556.543,488.631 537.597,484.541 536.581,482.335L535.915,550.643L548.432,551.004L549.053,505.329C549.045,503.424 548.845,494.444 561.642,494.769C572.828,495.053 574.243,501.761 574.191,504.87C574.02,515.252 556.602,515.546 553.749,511.826L554.338,576.713C558.994,576.648 589.184,558.493 593.494,576.886C596.535,589.862 586.371,594.12 583.253,594.147C574.9,594.218 572.984,585.391 576.688,581.316C580.527,577.094 585.113,582.362 585.113,582.362C585.235,581.977 582.393,574.505 575.28,579.169C565.744,585.421 580.631,613.623 580.631,613.623C584.98,613.754 621.487,599.013 621.788,567.466C622.235,520.586 595.037,474.003 588.263,458.649C583.867,448.686 576.234,428.593 574.951,413.852Z" style="fill:white;fill-opacity:0.86;"/>
        <path d="M457.154,186.254L501.252,159.027C502.927,176.233 504.334,193.526 505.39,210.931C505.694,215.947 503.933,224.81 496.201,227.329C485.302,230.879 478.43,221.281 486.83,212.793C492.515,207.049 499.649,208.254 501.431,209.168C500.8,198.488 500.317,187.803 499.224,177.14L462.067,201.636L464.401,234.281C464.662,241.191 462.739,243.709 456.26,247.645C448.287,252.488 441.154,246.972 441.202,241.729C441.248,236.767 446.425,231.499 451.099,230.399C455.636,229.33 459.31,229.672 460.199,230.734L457.154,186.254ZM461.71,193.052L498.758,170.278L498.803,174.112L461.831,196.512L461.71,193.052Z" style="fill:white;"/>
    </g>
</svg>
